{
    "asset": {
        "copyright": "(C)2021 jimmy",
        "generator": "maya2glTF v1.2.1 03f669e0d38e",
        "version": "2.0"
    },
    "scenes": [
        {
            "nodes": [
                0
            ]
        }
    ],
    "scene": 0,
    "nodes": [
        {
            "name": "ggj_prp_med_001",
            "mesh": 0,
            "translation": [
                0.0,
                1.9938803911209109,
                0.0
            ],
            "scale": [
                1.5500763654708865,
                1.980547308921814,
                1.5500763654708865
            ]
        }
    ],
    "meshes": [
        {
            "name": "ggj_prp_med_001Shape",
            "extras": {
                "targetNames": []
            },
            "primitives": [
                {
                    "attributes": {
                        "NORMAL": 1,
                        "POSITION": 2,
                        "TANGENT": 3,
                        "TEXCOORD_0": 4
                    },
                    "indices": 0,
                    "mode": 4,
                    "material": 0
                }
            ]
        }
    ],
    "materials": [
        {
            "name": "med_001",
            "pbrMetallicRoughness": {
                "baseColorFactor": [
                    0.800000011920929,
                    0.800000011920929,
                    0.800000011920929,
                    1.0
                ],
                "baseColorTexture": {
                    "index": 0
                },
                "metallicFactor": 0.0,
                "roughnessFactor": 1.0
            }
        }
    ],
    "textures": [
        {
            "sampler": 0,
            "source": 0
        }
    ],
    "images": [
        {
            "uri": "lambert1_Base_Color.png"
        }
    ],
    "samplers": [
        {
            "magFilter": 9729,
            "minFilter": 9987,
            "wrapS": 10497,
            "wrapT": 10497
        }
    ],
    "accessors": [
        {
            "name": "ggj_prp_med_001Shape#0/indices",
            "bufferView": 0,
            "byteOffset": 0,
            "componentType": 5123,
            "count": 420,
            "max": [
                149
            ],
            "min": [
                0
            ],
            "type": "SCALAR"
        },
        {
            "name": "ggj_prp_med_001Shape#0/vertices/NORMAL",
            "bufferView": 1,
            "byteOffset": 0,
            "componentType": 5126,
            "count": 150,
            "max": [
                0.99631005525589,
                1.0,
                0.9475472569465636
            ],
            "min": [
                -0.99631005525589,
                -1.0,
                -0.9475472569465636
            ],
            "type": "VEC3"
        },
        {
            "name": "ggj_prp_med_001Shape#0/vertices/POSITION",
            "bufferView": 1,
            "byteOffset": 1800,
            "componentType": 5126,
            "count": 150,
            "max": [
                1.0,
                1.5988287925720218,
                0.9510565996170044
            ],
            "min": [
                -1.0000001192092896,
                -0.9999997615814208,
                -0.9510566592216492
            ],
            "type": "VEC3"
        },
        {
            "name": "ggj_prp_med_001Shape#0/vertices/TANGENT",
            "bufferView": 2,
            "byteOffset": 0,
            "componentType": 5126,
            "count": 150,
            "max": [
                0.9536413550376892,
                0.7706940770149231,
                1.0,
                1.0
            ],
            "min": [
                -0.9525470733642578,
                -0.7706940770149231,
                -1.0,
                1.0
            ],
            "type": "VEC4"
        },
        {
            "name": "ggj_prp_med_001Shape#0/vertices/TEXCOORD_0",
            "bufferView": 3,
            "byteOffset": 0,
            "componentType": 5126,
            "count": 150,
            "max": [
                0.9749503135681152,
                0.9727212190628052
            ],
            "min": [
                0.0019460349576547745,
                0.001991986995562911
            ],
            "type": "VEC2"
        }
    ],
    "bufferViews": [
        {
            "name": "ggj_prp_med_001/data/indices-2",
            "buffer": 0,
            "byteOffset": 7200,
            "byteLength": 840,
            "target": 34963
        },
        {
            "name": "ggj_prp_med_001/data/vertices-12",
            "buffer": 0,
            "byteOffset": 2400,
            "byteLength": 3600,
            "byteStride": 12,
            "target": 34962
        },
        {
            "name": "ggj_prp_med_001/data/vertices-16",
            "buffer": 0,
            "byteOffset": 0,
            "byteLength": 2400,
            "byteStride": 16,
            "target": 34962
        },
        {
            "name": "ggj_prp_med_001/data/vertices-8",
            "buffer": 0,
            "byteOffset": 6000,
            "byteLength": 1200,
            "byteStride": 8,
            "target": 34962
        }
    ],
    "buffers": [
        {
            "name": "ggj_prp_med_001/data",
            "byteLength": 8040,
            "uri": "ggj_prp_med_0010.bin"
        }
    ]
}
