{
    "asset": {
        "copyright": "(C)2021 jimmy",
        "generator": "maya2glTF v1.2.1 03f669e0d38e",
        "version": "2.0"
    },
    "scenes": [
        {
            "nodes": [
                0
            ]
        }
    ],
    "scene": 0,
    "nodes": [
        {
            "name": "ggj_prp_wep_001",
            "children": [
                1
            ],
            "translation": [
                0.0,
                4.520357608795166,
                0.0
            ]
        },
        {
            "name": "ggj_prp_wep_001:PIV",
            "mesh": 0,
            "translation": [
                0.0,
                -4.520357608795166,
                0.0
            ]
        }
    ],
    "meshes": [
        {
            "name": "ggj_prp_wep_001Shape",
            "extras": {
                "targetNames": []
            },
            "primitives": [
                {
                    "attributes": {
                        "NORMAL": 1,
                        "POSITION": 2,
                        "TANGENT": 3,
                        "TEXCOORD_0": 4
                    },
                    "indices": 0,
                    "mode": 4,
                    "material": 0
                }
            ]
        }
    ],
    "materials": [
        {
            "name": "wep",
            "pbrMetallicRoughness": {
                "baseColorFactor": [
                    0.800000011920929,
                    0.800000011920929,
                    0.800000011920929,
                    1.0
                ],
                "baseColorTexture": {
                    "index": 0
                },
                "metallicFactor": 0.0,
                "roughnessFactor": 1.0
            }
        }
    ],
    "textures": [
        {
            "sampler": 0,
            "source": 0
        }
    ],
    "images": [
        {
            "uri": "ggj_prp_wep_001_lambert1_BaseColor.png"
        }
    ],
    "samplers": [
        {
            "magFilter": 9729,
            "minFilter": 9987,
            "wrapS": 10497,
            "wrapT": 10497
        }
    ],
    "accessors": [
        {
            "name": "ggj_prp_wep_001Shape#0/indices",
            "bufferView": 0,
            "byteOffset": 0,
            "componentType": 5123,
            "count": 1200,
            "max": [
                397
            ],
            "min": [
                0
            ],
            "type": "SCALAR"
        },
        {
            "name": "ggj_prp_wep_001Shape#0/vertices/NORMAL",
            "bufferView": 1,
            "byteOffset": 0,
            "componentType": 5126,
            "count": 398,
            "max": [
                1.0,
                1.0,
                0.9999995827674866
            ],
            "min": [
                -1.0,
                -1.0,
                -0.9999995827674866
            ],
            "type": "VEC3"
        },
        {
            "name": "ggj_prp_wep_001Shape#0/vertices/POSITION",
            "bufferView": 1,
            "byteOffset": 4776,
            "componentType": 5126,
            "count": 398,
            "max": [
                0.9140959978103638,
                8.869869232177735,
                0.23064300417900089
            ],
            "min": [
                -0.9140959978103638,
                0.17084600031375886,
                -0.23064300417900089
            ],
            "type": "VEC3"
        },
        {
            "name": "ggj_prp_wep_001Shape#0/vertices/TANGENT",
            "bufferView": 2,
            "byteOffset": 0,
            "componentType": 5126,
            "count": 398,
            "max": [
                1.0,
                1.0,
                1.0,
                1.0
            ],
            "min": [
                -0.9748936891555786,
                -1.0,
                -1.0,
                1.0
            ],
            "type": "VEC4"
        },
        {
            "name": "ggj_prp_wep_001Shape#0/vertices/TEXCOORD_0",
            "bufferView": 3,
            "byteOffset": 0,
            "componentType": 5126,
            "count": 398,
            "max": [
                0.9319097399711608,
                0.9980079531669616
            ],
            "min": [
                0.00186009902972728,
                0.001991986995562911
            ],
            "type": "VEC2"
        }
    ],
    "bufferViews": [
        {
            "name": "ggj_prp_wep_001/data/indices-2",
            "buffer": 0,
            "byteOffset": 19104,
            "byteLength": 2400,
            "target": 34963
        },
        {
            "name": "ggj_prp_wep_001/data/vertices-12",
            "buffer": 0,
            "byteOffset": 6368,
            "byteLength": 9552,
            "byteStride": 12,
            "target": 34962
        },
        {
            "name": "ggj_prp_wep_001/data/vertices-16",
            "buffer": 0,
            "byteOffset": 0,
            "byteLength": 6368,
            "byteStride": 16,
            "target": 34962
        },
        {
            "name": "ggj_prp_wep_001/data/vertices-8",
            "buffer": 0,
            "byteOffset": 15920,
            "byteLength": 3184,
            "byteStride": 8,
            "target": 34962
        }
    ],
    "buffers": [
        {
            "name": "ggj_prp_wep_001/data",
            "byteLength": 21504,
            "uri": "ggj_prp_wep_0010.bin"
        }
    ]
}
