{
    "asset": {
        "copyright": "(C)2021 jimmy",
        "generator": "maya2glTF v1.2.1 03f669e0d38e",
        "version": "2.0"
    },
    "scenes": [
        {
            "nodes": [
                2,
                0
            ]
        }
    ],
    "scene": 0,
    "nodes": [
        {
            "name": "characterwrist1",
            "children": [
                1
            ],
            "translation": [
                -4.770000145981612e-7,
                7.568783283233643,
                -0.08710050582885742
            ]
        },
        {
            "name": "characterwrist1:PIV",
            "mesh": 0,
            "translation": [
                4.770000145981612e-7,
                -7.568783283233643,
                0.08710050582885742
            ],
            "skin": 0
        },
        {
            "name": "character",
            "children": [
                3
            ]
        },
        {
            "name": "Armature",
            "children": [
                4
            ],
            "translation": [
                0.0,
                6.528871059417725,
                0.0
            ],
            "rotation": [
                -0.7071068286895752,
                0.0,
                0.0,
                0.7071067094802856
            ],
            "scale": [
                3.247631072998047,
                3.247631072998047,
                3.247631072998047
            ]
        },
        {
            "name": "base",
            "children": [
                13,
                9,
                5
            ],
            "rotation": [
                0.7210991978645325,
                0.0,
                0.0,
                0.692831814289093
            ]
        },
        {
            "name": "thighL",
            "children": [
                6
            ],
            "translation": [
                0.30000001192092898,
                0.05464809760451317,
                -0.0021859239786863329
            ],
            "rotation": [
                0.983754813671112,
                0.10575880855321884,
                0.014027893543243409,
                0.14437708258628846
            ],
            "scale": [
                1.0000461339950562,
                1.000000238418579,
                0.9999999403953552
            ]
        },
        {
            "name": "legL",
            "children": [
                7
            ],
            "translation": [
                1.4000000270186776e-8,
                0.8512856960296631,
                1.999999943436137e-9
            ],
            "rotation": [
                0.04660838842391968,
                0.0023944599088281399,
                -0.012457105331122876,
                0.9988327026367188
            ],
            "scale": [
                0.9999999403953552,
                1.0,
                1.0
            ]
        },
        {
            "name": "f1",
            "children": [
                8
            ],
            "translation": [
                -2.8000000540373553e-8,
                1.2417938709259034,
                1.3000000187446405e-8
            ],
            "rotation": [
                -0.5118060111999512,
                -0.24097438156604768,
                -0.08728252351284027,
                0.8199803233146668
            ],
            "scale": [
                0.9999999403953552,
                1.0,
                0.9999998807907105
            ]
        },
        {
            "name": "f1_end",
            "translation": [
                0.013269077986478806,
                0.45193007588386538,
                -0.08305799216032028
            ],
            "rotation": [
                -0.3810439705848694,
                0.0,
                0.0,
                0.9245569109916688
            ]
        },
        {
            "name": "thighR",
            "children": [
                10
            ],
            "translation": [
                -0.30000001192092898,
                0.05464809760451317,
                -0.0021859239786863329
            ],
            "rotation": [
                0.96910959482193,
                -0.2075319737195969,
                0.0918690338730812,
                0.09652531892061234
            ],
            "scale": [
                1.0000461339950562,
                1.000000238418579,
                0.9999999403953552
            ]
        },
        {
            "name": "legR",
            "children": [
                11
            ],
            "translation": [
                -1.4000000270186776e-8,
                0.8512856960296631,
                1.999999943436137e-9
            ],
            "rotation": [
                0.2970198690891266,
                0.0586150661110878,
                -0.16930407285690309,
                0.9379123449325562
            ],
            "scale": [
                0.9999999403953552,
                1.0,
                1.0
            ]
        },
        {
            "name": "f2",
            "children": [
                12
            ],
            "translation": [
                2.8000000540373553e-8,
                1.2417938709259034,
                1.3000000187446405e-8
            ],
            "rotation": [
                -0.8229953646659851,
                0.03881027549505234,
                -0.03022563643753529,
                0.5659141540527344
            ],
            "scale": [
                0.9999999403953552,
                1.0,
                0.9999998807907105
            ]
        },
        {
            "name": "f2_end",
            "translation": [
                0.0,
                0.4779195785522461,
                0.0
            ],
            "rotation": [
                -0.1150924637913704,
                0.0,
                0.0,
                0.9933547973632813
            ]
        },
        {
            "name": "stomache",
            "children": [
                14
            ],
            "translation": [
                0.0,
                0.5003998279571533,
                0.0
            ],
            "rotation": [
                0.05945838242769241,
                0.0,
                0.0,
                0.9982308149337769
            ],
            "scale": [
                1.0,
                0.9999999403953552,
                0.9999999403953552
            ]
        },
        {
            "name": "chest",
            "children": [
                25,
                20,
                15
            ],
            "translation": [
                0.0,
                0.6003331542015076,
                0.0
            ],
            "rotation": [
                0.2345145642757416,
                0.06253568828105927,
                0.00761188380420208,
                0.9700692296028136
            ],
            "scale": [
                1.0,
                1.0,
                0.9999999403953552
            ]
        },
        {
            "name": "sholdrR",
            "children": [
                16
            ],
            "translation": [
                0.0,
                0.7907589673995972,
                -1.499999946474873e-8
            ],
            "rotation": [
                -0.06547772139310837,
                -0.07544168084859848,
                0.8490991592407227,
                0.5187020897865295
            ],
            "scale": [
                0.9999999403953552,
                0.9999999403953552,
                0.9999998807907105
            ]
        },
        {
            "name": "uparmR",
            "children": [
                17
            ],
            "translation": [
                5.200000074978561e-8,
                0.5867041349411011,
                -2.2000000043931327e-8
            ],
            "rotation": [
                0.004457560833543539,
                0.02065815217792988,
                0.17085912823677064,
                0.9850687980651856
            ]
        },
        {
            "name": "BotarmR",
            "children": [
                18
            ],
            "translation": [
                -3.6999999508680058e-8,
                0.6624330282211304,
                1.499999946474873e-8
            ],
            "rotation": [
                0.2410052865743637,
                0.0011389650171622637,
                0.06664302200078964,
                0.9682323336601256
            ],
            "scale": [
                1.0,
                0.9999998807907105,
                0.9999998807907105
            ]
        },
        {
            "name": "handR",
            "children": [
                19
            ],
            "translation": [
                1.4200000464370533e-7,
                0.7789639830589294,
                2.999999892949745e-8
            ],
            "rotation": [
                -0.21866221725940705,
                -0.021249614655971528,
                0.04961744323372841,
                0.9743066430091858
            ],
            "scale": [
                1.0,
                1.0,
                0.9999999403953552
            ]
        },
        {
            "name": "handR_end",
            "translation": [
                0.0,
                0.24504491686820985,
                0.0
            ]
        },
        {
            "name": "sholdrL",
            "children": [
                21
            ],
            "translation": [
                0.0,
                0.7907589673995972,
                -1.499999946474873e-8
            ],
            "rotation": [
                -0.06547784805297852,
                0.07544166594743729,
                -0.8490991592407227,
                0.5187020897865295
            ],
            "scale": [
                0.9999998211860656,
                0.9999999403953552,
                0.9999999403953552
            ]
        },
        {
            "name": "uparmL",
            "children": [
                22
            ],
            "translation": [
                -1.0800000183053273e-7,
                0.5867041349411011,
                1.499999946474873e-8
            ],
            "rotation": [
                0.21192911267280579,
                -0.07172983139753342,
                -0.23198604583740238,
                0.9466379284858704
            ],
            "scale": [
                1.0,
                1.000000238418579,
                1.0000001192092896
            ]
        },
        {
            "name": "BotarmL",
            "children": [
                23
            ],
            "translation": [
                -4.099999983964153e-8,
                0.6624331474304199,
                2.999999892949745e-8
            ],
            "rotation": [
                0.7876505255699158,
                -0.0420646034181118,
                -0.051702480763196948,
                0.6125064492225647
            ],
            "scale": [
                1.0000001192092896,
                1.0,
                1.0
            ]
        },
        {
            "name": "handL",
            "children": [
                24
            ],
            "translation": [
                -3.3999999260458938e-8,
                0.7789639830589294,
                2.999999892949745e-8
            ],
            "rotation": [
                0.32329025864601138,
                -0.0993032082915306,
                0.2014238089323044,
                0.919266402721405
            ],
            "scale": [
                1.0,
                0.9999999403953552,
                0.9999999403953552
            ]
        },
        {
            "name": "handL_end",
            "translation": [
                0.0,
                0.24504491686820985,
                0.0
            ]
        },
        {
            "name": "neck",
            "children": [
                26
            ],
            "translation": [
                0.0,
                0.7907589673995972,
                -1.499999946474873e-8
            ],
            "rotation": [
                0.3698575496673584,
                0.03266539424657822,
                -0.05997582897543907,
                0.926575005054474
            ],
            "scale": [
                1.0,
                0.9999999403953552,
                1.0
            ]
        },
        {
            "name": "head",
            "children": [
                27
            ],
            "translation": [
                0.0,
                0.20591270923614506,
                1.499999946474873e-8
            ],
            "rotation": [
                -0.4296146333217621,
                0.235438272356987,
                -0.1170853078365326,
                0.8638814091682434
            ],
            "scale": [
                1.0,
                1.0,
                0.9999998807907105
            ]
        },
        {
            "name": "head_end",
            "translation": [
                0.0,
                0.4200000762939453,
                0.0
            ]
        }
    ],
    "meshes": [
        {
            "name": "characterwrist1Shape",
            "extras": {
                "targetNames": []
            },
            "primitives": [
                {
                    "attributes": {
                        "JOINTS_0": 1,
                        "JOINTS_1": 2,
                        "NORMAL": 3,
                        "POSITION": 4,
                        "TANGENT": 5,
                        "TEXCOORD_0": 6,
                        "WEIGHTS_0": 7,
                        "WEIGHTS_1": 8
                    },
                    "indices": 0,
                    "mode": 4,
                    "material": 0
                }
            ]
        }
    ],
    "skins": [
        {
            "name": "characterwrist1Shape",
            "inverseBindMatrices": 9,
            "joints": [
                4,
                13,
                14,
                25,
                26,
                27,
                20,
                21,
                22,
                23,
                24,
                15,
                16,
                17,
                18,
                19,
                9,
                10,
                11,
                12,
                5,
                6,
                7,
                8
            ]
        }
    ],
    "materials": [
        {
            "name": "character_01",
            "pbrMetallicRoughness": {
                "baseColorFactor": [
                    0.800000011920929,
                    0.800000011920929,
                    0.800000011920929,
                    1.0
                ],
                "baseColorTexture": {
                    "index": 0
                },
                "metallicFactor": 0.0,
                "roughnessFactor": 1.0
            }
        }
    ],
    "textures": [
        {
            "sampler": 0,
            "source": 0
        }
    ],
    "images": [
        {
            "uri": "ggj_prp_char_001_lambert1_BaseColor.png"
        }
    ],
    "samplers": [
        {
            "magFilter": 9729,
            "minFilter": 9987,
            "wrapS": 10497,
            "wrapT": 10497
        }
    ],
    "accessors": [
        {
            "name": "characterwrist1Shape#0/indices",
            "bufferView": 0,
            "byteOffset": 0,
            "componentType": 5123,
            "count": 6936,
            "max": [
                4619
            ],
            "min": [
                0
            ],
            "type": "SCALAR"
        },
        {
            "name": "characterwrist1Shape#0/vertices/JOINTS_0",
            "bufferView": 1,
            "byteOffset": 0,
            "componentType": 5123,
            "count": 4620,
            "max": [
                22,
                23,
                23,
                23
            ],
            "min": [
                0,
                0,
                0,
                0
            ],
            "type": "VEC4"
        },
        {
            "name": "characterwrist1Shape#0/vertices/JOINTS_1",
            "bufferView": 1,
            "byteOffset": 36960,
            "componentType": 5123,
            "count": 4620,
            "max": [
                23,
                20,
                0,
                0
            ],
            "min": [
                0,
                0,
                0,
                0
            ],
            "type": "VEC4"
        },
        {
            "name": "characterwrist1Shape#0/vertices/NORMAL",
            "bufferView": 2,
            "byteOffset": 0,
            "componentType": 5126,
            "count": 4620,
            "max": [
                0.99986332654953,
                0.9995590448379516,
                0.9999061226844788
            ],
            "min": [
                -0.9992209076881408,
                -0.9998031854629516,
                -0.9988104701042176
            ],
            "type": "VEC3"
        },
        {
            "name": "characterwrist1Shape#0/vertices/POSITION",
            "bufferView": 2,
            "byteOffset": 55440,
            "componentType": 5126,
            "count": 4620,
            "max": [
                3.7941410541534426,
                13.8746919631958,
                4.186534404754639
            ],
            "min": [
                -5.1467695236206059,
                -0.36838647723197939,
                -1.7775979042053225
            ],
            "type": "VEC3"
        },
        {
            "name": "characterwrist1Shape#0/vertices/TANGENT",
            "bufferView": 3,
            "byteOffset": 0,
            "componentType": 5126,
            "count": 4620,
            "max": [
                0.9999781250953674,
                0.999980926513672,
                0.9996691346168518,
                1.0
            ],
            "min": [
                -0.974617600440979,
                -0.9996899962425232,
                -0.9999176263809204,
                1.0
            ],
            "type": "VEC4"
        },
        {
            "name": "characterwrist1Shape#0/vertices/TEXCOORD_0",
            "bufferView": 1,
            "byteOffset": 73920,
            "componentType": 5126,
            "count": 4620,
            "max": [
                1.0,
                1.0
            ],
            "min": [
                0.0,
                0.0032694940455257899
            ],
            "type": "VEC2"
        },
        {
            "name": "characterwrist1Shape#0/vertices/WEIGHTS_0",
            "bufferView": 3,
            "byteOffset": 73920,
            "componentType": 5126,
            "count": 4620,
            "max": [
                1.0,
                0.49995893239974978,
                0.32078424096107485,
                0.19393503665924073
            ],
            "min": [
                0.23312322795391084,
                0.0,
                0.0,
                0.0
            ],
            "type": "VEC4"
        },
        {
            "name": "characterwrist1Shape#0/vertices/WEIGHTS_1",
            "bufferView": 3,
            "byteOffset": 147840,
            "componentType": 5126,
            "count": 4620,
            "max": [
                0.17393188178539277,
                0.0016550852451473477,
                0.0,
                0.0
            ],
            "min": [
                0.0,
                0.0,
                0.0,
                0.0
            ],
            "type": "VEC4"
        },
        {
            "name": "characterwrist1Shape/skin/IBM",
            "bufferView": 4,
            "byteOffset": 0,
            "componentType": 5126,
            "count": 24,
            "max": [
                0.3079167604446411,
                0.2565008997917176,
                0.21537327766418458,
                0.0,
                0.2184821367263794,
                0.3076707124710083,
                0.2649298310279846,
                0.0,
                0.16926413774490357,
                0.30527263879776,
                0.3076707124710083,
                0.0,
                3.13295578956604,
                2.437453269958496,
                3.569025993347168,
                1.0
            ],
            "min": [
                -0.29348769783973696,
                -0.27562010288238528,
                -0.15591636300086976,
                0.0,
                -0.2358421087265015,
                -0.29544776678085329,
                -0.3078482151031494,
                0.0,
                -0.1995750218629837,
                -0.1602717489004135,
                -0.3040318787097931,
                0.0,
                -2.969404458999634,
                -4.151314735412598,
                -2.247177839279175,
                1.0
            ],
            "type": "MAT4"
        }
    ],
    "bufferViews": [
        {
            "name": "ggj_prp_char_001/data/indices-2",
            "buffer": 0,
            "byteOffset": 445056,
            "byteLength": 13872,
            "target": 34963
        },
        {
            "name": "ggj_prp_char_001/data/vertices-8",
            "buffer": 0,
            "byteOffset": 334176,
            "byteLength": 110880,
            "byteStride": 8,
            "target": 34962
        },
        {
            "name": "ggj_prp_char_001/data/vertices-12",
            "buffer": 0,
            "byteOffset": 223296,
            "byteLength": 110880,
            "byteStride": 12,
            "target": 34962
        },
        {
            "name": "ggj_prp_char_001/data/vertices-16",
            "buffer": 0,
            "byteOffset": 1536,
            "byteLength": 221760,
            "byteStride": 16,
            "target": 34962
        },
        {
            "name": "ggj_prp_char_001/data/generic-64",
            "buffer": 0,
            "byteOffset": 0,
            "byteLength": 1536
        }
    ],
    "buffers": [
        {
            "name": "ggj_prp_char_001/data",
            "byteLength": 458928,
            "uri": "ggj_prp_char_0010.bin"
        }
    ]
}
